<mxfile host="app.diagrams.net" agent="Mozilla/5.0 (Windows NT 10.0; Win64; x64) AppleWebKit/537.36 (KHTML, like Gecko) Chrome/141.0.0.0 Safari/537.36" version="28.2.5">
  <diagram name="UNIFOR - Diagrama de Caso de Uso" id="0">
    <mxGraphModel dx="1342" dy="675" grid="1" gridSize="10" guides="1" tooltips="1" connect="1" arrows="1" fold="1" page="1" pageScale="1" pageWidth="1600" pageHeight="1000" math="0" shadow="0">
      <root>
        <mxCell id="0" />
        <mxCell id="1" parent="0" />
        <mxCell id="sys1" value="Sistema UNIFOR (Frontend Angular + Backend Quarkus)" style="rounded=1;html=1;dashed=1;strokeWidth=2;labelBackgroundColor=none;" parent="1" vertex="1">
          <mxGeometry x="250" y="40" width="700" height="560" as="geometry" />
        </mxCell>
        <mxCell id="uc_login" value="Realizar Login" style="ellipse;whiteSpace=wrap;html=1;" parent="sys1" vertex="1">
          <mxGeometry x="90" y="20" width="150" height="50" as="geometry" />
        </mxCell>
        <mxCell id="uc_token" value="Validar Token JWT" style="ellipse;whiteSpace=wrap;html=1;" parent="sys1" vertex="1">
          <mxGeometry x="470" y="75" width="170" height="50" as="geometry" />
        </mxCell>
        <mxCell id="uc_view_courses" value="Visualizar Cursos" style="ellipse;whiteSpace=wrap;html=1;" parent="sys1" vertex="1">
          <mxGeometry x="75" y="150" width="180" height="50" as="geometry" />
        </mxCell>
        <mxCell id="uc_enroll" value="Inscrever-se em Curso" style="ellipse;whiteSpace=wrap;html=1;" parent="sys1" vertex="1">
          <mxGeometry x="230" y="75" width="200" height="50" as="geometry" />
        </mxCell>
        <mxCell id="uc_create_course" value="Criar Curso" style="ellipse;whiteSpace=wrap;html=1;" parent="sys1" vertex="1">
          <mxGeometry x="30" y="255" width="150" height="50" as="geometry" />
        </mxCell>
        <mxCell id="uc_manage_students" value="Gerenciar Alunos" style="ellipse;whiteSpace=wrap;html=1;" parent="sys1" vertex="1">
          <mxGeometry x="270" y="200" width="190" height="50" as="geometry" />
        </mxCell>
        <mxCell id="uc_manage_roles" value="Gerenciar Roles" style="ellipse;whiteSpace=wrap;html=1;" parent="sys1" vertex="1">
          <mxGeometry x="320" y="490" width="180" height="50" as="geometry" />
        </mxCell>
        <mxCell id="uc_manage_users" value="Gerenciar UsuÃ¡rios" style="ellipse;whiteSpace=wrap;html=1;" parent="sys1" vertex="1">
          <mxGeometry x="50" y="435" width="200" height="50" as="geometry" />
        </mxCell>
        <mxCell id="e14" style="endArrow=none;html=1;rounded=0;" parent="sys1" source="uc_manage_users" target="uc_manage_roles" edge="1">
          <mxGeometry relative="1" as="geometry" />
        </mxCell>
        <mxCell id="actor_aluno" value="Aluno" style="shape=umlActor;verticalLabelPosition=bottom;verticalAlign=top;html=1;" parent="1" vertex="1">
          <mxGeometry x="100" y="80" width="60" height="100" as="geometry" />
        </mxCell>
        <mxCell id="actor_prof" value="Professor" style="shape=umlActor;verticalLabelPosition=bottom;verticalAlign=top;html=1;" parent="1" vertex="1">
          <mxGeometry x="160" y="200" width="60" height="100" as="geometry" />
        </mxCell>
        <mxCell id="actor_coord" value="Coordenador" style="shape=umlActor;verticalLabelPosition=bottom;verticalAlign=top;html=1;" parent="1" vertex="1">
          <mxGeometry x="70" y="390" width="80" height="100" as="geometry" />
        </mxCell>
        <mxCell id="actor_admin" value="Administrador" style="shape=umlActor;verticalLabelPosition=bottom;verticalAlign=top;html=1;" parent="1" vertex="1">
          <mxGeometry x="150" y="480" width="80" height="100" as="geometry" />
        </mxCell>
        <mxCell id="actor_keycloak" value="Keycloak (Auth)" style="shape=umlActor;verticalLabelPosition=bottom;verticalAlign=top;html=1;" parent="1" vertex="1">
          <mxGeometry x="1020" y="90" width="110" height="100" as="geometry" />
        </mxCell>
        <mxCell id="actor_mysql" value="MySQL (BD)" style="shape=cylinder;whiteSpace=wrap;html=1;boundedLbl=1;" parent="1" vertex="1">
          <mxGeometry x="1020" y="475" width="110" height="120" as="geometry" />
        </mxCell>
        <mxCell id="e1" style="endArrow=none;html=1;rounded=0;" parent="1" source="actor_aluno" target="uc_login" edge="1">
          <mxGeometry relative="1" as="geometry" />
        </mxCell>
        <mxCell id="e2" style="endArrow=none;html=1;rounded=0;" parent="1" source="actor_aluno" target="uc_view_courses" edge="1">
          <mxGeometry relative="1" as="geometry" />
        </mxCell>
        <mxCell id="e3" style="endArrow=none;html=1;rounded=0;" parent="1" source="actor_aluno" target="uc_enroll" edge="1">
          <mxGeometry relative="1" as="geometry" />
        </mxCell>
        <mxCell id="e4" style="endArrow=none;html=1;rounded=0;" parent="1" source="actor_prof" target="uc_login" edge="1">
          <mxGeometry relative="1" as="geometry" />
        </mxCell>
        <mxCell id="e6" style="endArrow=none;html=1;rounded=0;" parent="1" source="actor_prof" target="uc_manage_students" edge="1">
          <mxGeometry relative="1" as="geometry" />
        </mxCell>
        <mxCell id="e7" style="endArrow=block;endFill=0;html=1;rounded=0;entryX=0;entryY=0.5;entryDx=0;entryDy=0;exitX=0.403;exitY=0.758;exitDx=0;exitDy=0;exitPerimeter=0;" parent="1" source="actor_prof" target="uc_create_course" edge="1">
          <mxGeometry relative="1" as="geometry" />
        </mxCell>
        <mxCell id="e8" style="endArrow=none;html=1;rounded=0;" parent="1" source="actor_coord" target="uc_login" edge="1">
          <mxGeometry relative="1" as="geometry" />
        </mxCell>
        <mxCell id="e9" style="endArrow=none;html=1;rounded=0;" parent="1" source="actor_coord" target="uc_manage_semesters" edge="1">
          <mxGeometry relative="1" as="geometry" />
        </mxCell>
        <mxCell id="e10" style="endArrow=none;html=1;rounded=0;" parent="1" source="actor_coord" target="uc_manage_courses" edge="1">
          <mxGeometry relative="1" as="geometry" />
        </mxCell>
        <mxCell id="e11" style="endArrow=none;html=1;rounded=0;" parent="1" source="actor_coord" target="uc_manage_subjects" edge="1">
          <mxGeometry relative="1" as="geometry" />
        </mxCell>
        <mxCell id="e12" style="endArrow=none;html=1;rounded=0;" parent="1" source="actor_coord" target="uc_build_curriculum" edge="1">
          <mxGeometry relative="1" as="geometry" />
        </mxCell>
        <mxCell id="e13" style="endArrow=none;html=1;rounded=0;" parent="1" source="actor_admin" target="uc_manage_users" edge="1">
          <mxGeometry relative="1" as="geometry" />
        </mxCell>
        <mxCell id="e15" style="endArrow=none;html=1;rounded=0;" parent="1" source="actor_keycloak" target="uc_token" edge="1">
          <mxGeometry relative="1" as="geometry" />
        </mxCell>
        <mxCell id="e16" style="endArrow=none;html=1;rounded=0;" parent="1" source="actor_mysql" target="uc_manage_users" edge="1">
          <mxGeometry relative="1" as="geometry" />
        </mxCell>
        <mxCell id="e17" style="endArrow=none;html=1;rounded=0;" parent="1" source="actor_mysql" target="uc_manage_courses" edge="1">
          <mxGeometry relative="1" as="geometry" />
        </mxCell>
        <mxCell id="e18" style="endArrow=none;html=1;rounded=0;" parent="1" source="actor_mysql" target="uc_manage_semesters" edge="1">
          <mxGeometry relative="1" as="geometry" />
        </mxCell>
        <mxCell id="e19" style="endArrow=none;html=1;rounded=0;" parent="1" source="actor_mysql" target="uc_manage_subjects" edge="1">
          <mxGeometry relative="1" as="geometry" />
        </mxCell>
        <mxCell id="uc_logout" value="Logout" style="ellipse;whiteSpace=wrap;html=1;" parent="1" vertex="1">
          <mxGeometry x="1015" y="30" width="120" height="50" as="geometry" />
        </mxCell>
        <mxCell id="xvfS_YciE832yjpW871F-2" value="" style="endArrow=none;html=1;rounded=0;" edge="1" parent="1" source="actor_admin" target="uc_manage_users">
          <mxGeometry relative="1" as="geometry">
            <mxPoint x="120" y="593" as="sourcePoint" />
            <mxPoint x="783" y="478" as="targetPoint" />
          </mxGeometry>
        </mxCell>
        <mxCell id="uc_manage_semesters" value="Gerenciar Semestres (CRUD)" style="ellipse;whiteSpace=wrap;html=1;" parent="1" vertex="1">
          <mxGeometry x="970" y="220" width="220" height="50" as="geometry" />
        </mxCell>
        <mxCell id="uc_manage_courses" value="Gerenciar Cursos (CRUD)" style="ellipse;whiteSpace=wrap;html=1;" parent="1" vertex="1">
          <mxGeometry x="970" y="285" width="220" height="50" as="geometry" />
        </mxCell>
        <mxCell id="uc_manage_subjects" value="Gerenciar Disciplinas (CRUD)" style="ellipse;whiteSpace=wrap;html=1;" parent="1" vertex="1">
          <mxGeometry x="960" y="345" width="230" height="50" as="geometry" />
        </mxCell>
        <mxCell id="uc_build_curriculum" value="Montar Matriz Curricular" style="ellipse;whiteSpace=wrap;html=1;" parent="1" vertex="1">
          <mxGeometry x="960" y="400" width="230" height="50" as="geometry" />
        </mxCell>
      </root>
    </mxGraphModel>
  </diagram>
</mxfile>
